# AST/ASF file generated using VICON BodyLanguage
# -----------------------------------------------
:version 1.10
:name VICON
:units
  mass 1.0
  length 0.45
  angle deg
:documentation
   .ast/.asf automatically generated from VICON data using
   VICON BodyBuilder and BodyLanguage model FoxedUp or BRILLIANT.MOD
:root
   order TX TY TZ RX RY RZ
   axis XYZ
   position 0 0 0  
   orientation 0 0 0 
:bonedata
  begin
     id 1 
     name lhipjoint
     direction 0.589753 -0.68606 0.426044 
     length 2.54082 
     axis 0 0 0  XYZ
  end
  begin
     id 2 
     name lfemur
     direction 0.34202 -0.939693 0  
     length 7.04539  
     axis 0 0 20  XYZ
    dof rx ry rz
    limits (-160.0 20.0)
           (-70.0 70.0)
           (-60.0 70.0)
  end
  begin
     id 3 
     name ltibia
     direction 0.34202 -0.939693 0   
     length 7.83772   
     axis 0 0 20   XYZ
    dof rx
    limits (-10.0 170.0)
  end
  begin
     id 4 
     name lfoot
     direction 0.0596604 -0.163915 0.984669   
     length 2.39542   
     axis -90 7.62852e-016 20   XYZ
    dof rx rz
    limits (-45.0 90.0)
           (-70.0 20.0)
  end
  begin
     id 5 
     name ltoes
     direction 1.53514e-011 -4.21954e-011 1   
     length 1.2047   
     axis -90 7.62852e-016 20   XYZ
    dof rx
    limits (-90.0 20.0)
  end
  begin
     id 6 
     name rhipjoint
     direction -0.580585 -0.69168 0.429534   
     length 2.52018  
     axis 0 0 0  XYZ 
  end
  begin
     id 7 
     name rfemur
     direction -0.34202 -0.939693 0   
     length 7.0101   
     axis 0 0 -20   XYZ
    dof rx ry rz
    limits (-160.0 20.0)
           (-70.0 70.0)
           (-70.0 60.0)
  end
  begin
     id 8 
     name rtibia
     direction -0.34202 -0.939693 0   
     length 7.70628   
     axis 0 0 -20   XYZ
    dof rx
    limits (-10.0 170.0)
 end
 begin
     id 9 
     name rfoot
     direction -0.0696237 -0.19129 0.979061   
     length 2.52466  
     axis -90 -7.62852e-016 -20   XYZ
    dof rx rz
    limits (-45.0 90.0)
           (-20.0 70.0)
  end
  begin
     id 10 
     name rtoes
     direction -1.53519e-011 -4.21793e-011 1   
     length 1.266   
     axis -90 -7.62852e-016 -20   XYZ
    dof rx
    limits (-90.0 20.0)
  end
  begin
     id 11 
     name lowerback
     direction 0.00381965 0.995707 -0.0924856   
     length 2.20825   
     axis 0 0 0   XYZ
    dof rx ry rz
    limits (-20.0 45.0)
           (-30.0 30.0)
           (-30.0 30.0)
  end
  begin
     id 12 
     name upperback
     direction -0.0139043 0.999634 -0.0231929   
     length 2.21517   
     axis 0 0 0   XYZ
    dof rx ry rz
    limits (-20.0 45.0)
           (-30.0 30.0)
           (-30.0 30.0)
  end
  begin
     id 13 
     name thorax
     direction -0.0143933 0.999691 0.0202892   
     length 2.22911   
     axis 0 0 0   XYZ
    dof rx ry rz
    limits (-20.0 45.0)
           (-30.0 30.0)
           (-30.0 30.0)
  end
  begin
     id 14 
     name lowerneck
     direction -0.0251153 0.981819 0.188153   
     length 1.61782   
     axis 0 0 0   XYZ
    dof rx ry rz
    limits (-20.0 45.0)
           (-30.0 30.0)
           (-30.0 30.0)
  end
  begin
     id 15 
     name upperneck
     direction 0.0563891 0.969357 -0.239095   
     length 1.64526   
     axis 0 0 0   XYZ
    dof rx ry rz
    limits (-20.0 45.0)
           (-30.0 30.0)
           (-30.0 30.0)
  end
  begin
     id 16
     name head
     direction 0.0208328 0.99459 -0.101773  
     length 1.67436  
     axis 0 0 0   XYZ
    dof rx ry rz
    limits (-20.0 45.0)
           (-30.0 30.0)
           (-30.0 30.0)
  end
  begin
     id 17 
     name lclavicle
     direction 0.917689 0.397224 0.00772059  
     length 3.31102  
     axis 0 0 0   XYZ
    dof ry rz
    limits (-20.0 10.0)
           (0.0 20.0)
  end
  begin
     id 18 
     name lhumerus
     direction 1 -4.4896e-011 2.32308e-027   
     length 5.25537   
     axis 180 -30 -90   XYZ
    dof rx ry rz
    limits (-60.0 90.0)
           (-90.0 90.0)
           (-90.0 90.0)
  end
  begin
     id 19
     name lradius
     direction 1 -4.49005e-011 -2.04271e-027   
     length 3.38855   
     axis 180 -30 -90   XYZ
    dof rx
    limits (-10.0 170.0)
  end
  begin
     id 20
     name lwrist
     direction 1 -4.48892e-011 2.56952e-028   
     length 1.69428   
     axis -5.12785e-016 90 90   XYZ
    dof ry
    limits (-180.0 0.0)
 end
  begin
     id 21 
     name lhand
     direction 1 -4.48966e-011 5.13905e-028   
     length 0.614516   
     axis -3.27915e-016 90 90   XYZ
    dof rx rz
    limits (-90.0 90.0)
           (-45.0 45.0)
  end
  begin
     id 22 
     name lfingers
     direction 1 -4.48979e-011 1.02781e-027   
     length 0.495439   
     axis -6.5583e-016 90 90   XYZ
    dof rx
    limits (0.0 90.0)
  end
  begin
     id 23
     name lthumb
     direction 0.707107 -6.35001e-011 0.707107   
     length 0.711354   
     axis -90 45 2.85299e-015   XYZ
    dof rx rz
    limits (-45.0 45.0)
           (-45.0 45.0)
  end
  begin
     id 24 
     name rclavicle
     direction -0.938556 0.342765 -0.0403177   
     length 3.27019  
     axis 0 0 0   XYZ 
    dof ry rz
    limits (-10.0 20.0)
           (-20.0 0.0)
  end
  begin
     id 25 
     name rhumerus
     direction -1 -4.48966e-011 2.52291e-027  
     length 5.38183   
     axis 180 30 90   XYZ
    dof rx ry rz
    limits (-90.0 60.0)
           (-90.0 90.0)
           (-90.0 90.0)
  end
  begin
     id 26 
     name rradius
     direction -1 -4.4896e-011 1.5797e-027   
     length 3.16988   
     axis 180 30 90   XYZ
    dof rx
    limits (-10.0 170.0)
  end
  begin
     id 27 
     name rwrist
     direction -1 -4.48947e-011 2.56952e-028   
     length 1.58494   
     axis -5.12785e-016 -90 -90   XYZ
    dof ry
    limits (-180.0 0.0)
  end
  begin
     id 28
     name rhand
     direction -1 -4.49098e-011 5.13905e-028   
     length 0.637679   
     axis -3.27915e-016 -90 -90   XYZ
    dof rx rz
    limits (-90.0 90.0)
           (-45.0 45.0)
  end
  begin
     id 29
     name rfingers
     direction -1 -4.49026e-011 1.02781e-027   
     length 0.514113   
     axis -6.5583e-016 -90 -90   XYZ
    dof rx
    limits (0.0 90.0)
  end
  begin
     id 30
     name rthumb
     direction -0.707107 -6.3491e-011 0.707107   
     length 0.738167   
     axis -90 -45 -2.85299e-015   XYZ
    dof rx rz
    limits (-45.0 45.0)
           (-45.0 45.0)
  end
:hierarchy
  begin
    root lhipjoint rhipjoint lowerback
    lhipjoint lfemur
    lfemur ltibia
    ltibia lfoot
    lfoot ltoes
    rhipjoint rfemur
    rfemur rtibia
    rtibia rfoot
    rfoot rtoes
    lowerback upperback
    upperback thorax
    thorax lowerneck lclavicle rclavicle
    lowerneck upperneck
    upperneck head
    lclavicle lhumerus
    lhumerus lradius
    lradius lwrist
    lwrist lhand lthumb
    lhand lfingers
    rclavicle rhumerus
    rhumerus rradius
    rradius rwrist
    rwrist rhand rthumb
    rhand rfingers
  end

#!OML:ASF H:\Swim\Project 1\Capture day 1\Session 1\swimmer.ASF
:FULLY-SPECIFIED
:DEGREES
1053
root 2.72198 16.9855 -22.042 94.3744 -5.33119 27.4853
lowerback 3.67745 -0.843952 -0.338896
upperback -3.35834 -1.39337 -4.7959
thorax -5.67559 -0.781989 -4.70284
lowerneck -11.3112 -12.0808 -10.1809
upperneck 15.4428 -16.3932 11.4542
head 8.47491 -7.35721 3.48576
rclavicle -3.81667e-014 -1.45113e-014
rhumerus 7.40347 -12.5283 -56.8342
rradius 61.894
rwrist -178.934
rhand -20.0546 -6.03618
rfingers 7.12502
rthumb 6.28706 -35.9229
lclavicle -3.81667e-014 -1.45113e-014
lhumerus -110.252 -56.8952 121.11
lradius 75.2007
lwrist -32.0348
lhand -44.2937 -26.0251
lfingers 7.12502
lthumb -17.1039 3.24203
rfemur -34.9572 -25.5923 8.40963
rtibia 45.4981
rfoot -9.85435 -14.6726
rtoes 4.27973
lfemur -37.2494 -13.1064 -29.8391
ltibia 29.5421
lfoot 13.127 -1.14276
ltoes -11.7446
1054
root 2.71431 16.9826 -22.0697 94.2501 -5.31701 27.5616
lowerback 3.66165 -0.88067 -0.345254
upperback -3.35273 -1.44463 -4.83022
thorax -5.66586 -0.808049 -4.7312
lowerneck -11.2728 -12.0831 -10.2552
upperneck 15.3582 -16.3892 11.5031
head 8.45042 -7.36052 3.51578
rclavicle 6.36111e-015 3.33958e-014
rhumerus 7.65151 -12.4141 -56.7446
rradius 61.3865
rwrist -179.278
rhand -20.0861 -6.02904
rfingers 7.12502
rthumb 6.25673 -35.9166
lclavicle 6.36111e-015 3.33958e-014
lhumerus -110.028 -56.9132 121.06
lradius 74.7765
lwrist -32.656
lhand -44.3674 -25.8693
lfingers 7.12502
lthumb -17.1748 3.39163
rfemur -34.8361 -25.589 8.46893
rtibia 45.462
rfoot -9.75264 -14.7011
rtoes 4.4851
lfemur -37.1819 -13.136 -29.8043
ltibia 29.4436
lfoot 13.177 -1.00617
ltoes -11.668
1055
root 2.70676 16.9799 -22.0968 94.1347 -5.30182 27.6408
lowerback 3.63627 -0.916914 -0.352483
upperback -3.33644 -1.49435 -4.86253
thorax -5.63918 -0.832987 -4.75704
lowerneck -11.2664 -12.0877 -10.315
upperneck 15.2811 -16.3853 11.5295
head 8.43072 -7.36352 3.53447
rclavicle 2.22639e-014 -5.64548e-014
rhumerus 7.90794 -12.2652 -56.6308
rradius 60.8936
rwrist -179.543
rhand -20.0309 -6.0626
rfingers 7.12502
rthumb 6.31003 -35.9486
lclavicle 2.22639e-014 -5.64548e-014
lhumerus -109.693 -56.9265 120.876
lradius 74.4104
lwrist -33.2004
lhand -44.386 -25.8246
lfingers 7.12502
lthumb -17.1927 3.43479
rfemur -34.7177 -25.5743 8.5301
rtibia 45.4195
rfoot -9.65966 -14.7262
rtoes 4.65629
lfemur -37.1193 -13.1694 -29.7635
ltibia 29.3329
lfoot 13.2176 -0.866856
ltoes -11.6208
1056
root 2.69949 16.9777 -22.1233 94.031 -5.28041 27.7219
lowerback 3.60002 -0.954124 -0.349071
upperback -3.31391 -1.544 -4.89329
thorax -5.59996 -0.858122 -4.78737
lowerneck -11.3089 -12.0967 -10.3486
upperneck 15.2442 -16.3826 11.5052
head 8.42619 -7.36656 3.52967
rclavicle -2.54444e-014 3.85642e-014
rhumerus 8.16539 -12.0753 -56.5014
rradius 60.4338
rwrist -179.684
rhand -19.8837 -6.12882
rfingers 7.12502
rthumb 6.4521 -36.0105
lclavicle -2.54444e-014 3.85642e-014
lhumerus -109.298 -56.9408 120.586
lradius 74.1281
lwrist -33.693
lhand -44.3567 -25.849
lfingers 7.12502
lthumb -17.1645 3.41289
rfemur -34.6082 -25.5525 8.6017
rtibia 45.3726
rfoot -9.56528 -14.7435
rtoes 4.74826
lfemur -37.0627 -13.2044 -29.7118
ltibia 29.2104
lfoot 13.2626 -0.724371
ltoes -11.4788
1057
root 2.6922 16.9759 -22.1494 93.9274 -5.26433 27.7956
lowerback 3.56858 -0.988297 -0.344153
upperback -3.28673 -1.5897 -4.93169
thorax -5.55868 -0.881404 -4.82699
lowerneck -11.378 -12.1067 -10.3598
upperneck 15.2407 -16.3813 11.4542
head 8.43318 -7.36898 3.51102
rclavicle 3.81667e-014 -4.35338e-014
rhumerus 8.41072 -11.8531 -56.3641
rradius 60.0236
rwrist -179.68
rhand -19.6688 -6.20551
rfingers 7.12502
rthumb 6.65959 -36.0808
lclavicle 3.81667e-014 -4.35338e-014
lhumerus -108.844 -56.956 120.215
lradius 73.8935
lwrist -34.1916
lhand -44.2968 -25.8844
lfingers 7.12502
lthumb -17.1069 3.38244
rfemur -34.4978 -25.5168 8.66696
rtibia 45.3222
rfoot -9.47407 -14.7425
rtoes 4.88698
lfemur -36.9993 -13.2299 -29.6649
ltibia 29.0787
lfoot 13.2899 -0.590451
ltoes -11.3209
1058
root 2.68521 16.9747 -22.1754 93.8359 -5.24512 27.8667
lowerback 3.5282 -1.01934 -0.32811
upperback -3.26027 -1.63036 -4.97395
thorax -5.51318 -0.902661 -4.87765
lowerneck -11.4674 -12.1186 -10.3566
upperneck 15.2721 -16.3831 11.3862
head 8.45297 -7.37142 3.48282
rclavicle -3.81667e-014 1.59028e-014
rhumerus 8.63455 -11.6102 -56.2224
rradius 59.6762
rwrist -179.532
rhand -19.4081 -6.27668
rfingers 7.12502
rthumb 6.9112 -36.1439
lclavicle -3.81667e-014 1.59028e-014
lhumerus -108.359 -56.9751 119.781
lradius 73.7189
lwrist -34.74
lhand -44.2169 -25.877
lfingers 7.12502
lthumb -17.03 3.3965
rfemur -34.4014 -25.4726 8.73986
rtibia 45.2707
rfoot -9.4049 -14.7248
rtoes 4.86779
lfemur -36.9431 -13.2586 -29.6091
ltibia 28.9388
lfoot 13.2918 -0.465852
ltoes -11.2107
1059
root 2.67836 16.9742 -22.2011 93.7534 -5.22763 27.9283
lowerback 3.4852 -1.04403 -0.310621
upperback -3.23655 -1.66247 -5.01938
thorax -5.4686 -0.919755 -4.93335
lowerneck -11.5561 -12.1274 -10.3368
upperneck 15.3175 -16.3814 11.3011
head 8.47382 -7.37217 3.44717
rclavicle 1.27222e-014 -7.35503e-015
rhumerus 8.83593 -11.3589 -56.0765
rradius 59.3886
rwrist -179.271
rhand -19.1104 -6.34661
rfingers 7.12502
rthumb 7.19863 -36.2042
lclavicle 1.27222e-014 -7.35503e-015
lhumerus -107.866 -57.0033 119.309
lradius 73.5991
lwrist -35.3641
lhand -44.1402 -25.7915
lfingers 7.12502
lthumb -16.9562 3.48841
rfemur -34.3197 -25.4121 8.81477
rtibia 45.2208
rfoot -9.32748 -14.7033
rtoes 4.83922
lfemur -36.8909 -13.2845 -29.55
ltibia 28.7915
lfoot 13.2735 -0.349983
ltoes -11.1453
1060
root 2.67156 16.9744 -22.227 93.6748 -5.2286 27.979
lowerback 3.44924 -1.06196 -0.303974
upperback -3.21601 -1.68687 -5.07568
thorax -5.4309 -0.932826 -4.9951
lowerneck -11.6333 -12.1305 -10.3088
upperneck 15.3644 -16.3748 11.2196
head 8.49224 -7.37024 3.41289
rclavicle -1.27222e-014 5.18828e-014
rhumerus 9.01927 -11.1171 -55.9366
rradius 59.1481
rwrist -178.943
rhand -18.8049 -6.4012
rfingers 7.12502
rthumb 7.49346 -36.2485
lclavicle -1.27222e-014 5.18828e-014
lhumerus -107.409 -57.0461 118.816
lradius 73.5545
lwrist -36.0562
lhand -44.0677 -25.6279
lfingers 7.12502
lthumb -16.8864 3.65793
rfemur -34.252 -25.3433 8.87276
rtibia 45.1758
rfoot -9.23707 -14.6757
rtoes 4.71192
lfemur -36.838 -13.3139 -29.5042
ltibia 28.6384
lfoot 13.2382 -0.238871
ltoes -11.1043
1061
root 2.66481 16.9753 -22.253 93.5991 -5.24539 28.0198
lowerback 3.42146 -1.07317 -0.303295
upperback -3.19741 -1.70327 -5.14278
thorax -5.39956 -0.941904 -5.06562
lowerneck -11.694 -12.1253 -10.2901
upperneck 15.4056 -16.3624 11.1732
head 8.50932 -7.36384 3.39329
rclavicle -2.8625e-014 -4.37326e-014
rhumerus 9.19755 -10.9052 -55.8076
rradius 58.9324
rwrist -178.611
rhand -18.5095 -6.4434
rfingers 7.12502
rthumb 7.77855 -36.2803
lclavicle -2.8625e-014 -4.37326e-014
lhumerus -106.987 -57.1056 118.305
lradius 73.5741
lwrist -36.7794
lhand -44.0034 -25.4234
lfingers 7.12502
lthumb -16.8245 3.86769
rfemur -34.1988 -25.2653 8.91618
rtibia 45.1361
rfoot -9.16059 -14.6308
rtoes 4.40683
lfemur -36.7856 -13.3523 -29.467
ltibia 28.4819
lfoot 13.1887 -0.135912
ltoes -11.0961
1062
root 2.65808 16.9769 -22.279 93.5242 -5.27824 28.0507
lowerback 3.40132 -1.07566 -0.314158
upperback -3.18067 -1.7091 -5.21763
thorax -5.3736 -0.945399 -5.13868
lowerneck -11.7459 -12.1163 -10.2728
upperneck 15.4556 -16.3481 11.1394
head 8.52896 -7.35547 3.37871
rclavicle -3.18055e-015 -8.46823e-014
rhumerus 9.37995 -10.7462 -55.6976
rradius 58.7167
rwrist -178.322
rhand -18.2443 -6.47388
rfingers 7.12502
rthumb 8.03456 -36.3012
lclavicle -3.18055e-015 -8.46823e-014
lhumerus -106.636 -57.1832 117.81
lradius 73.6613
lwrist -37.462
lhand -43.9275 -25.254
lfingers 7.12502
lthumb -16.7514 4.04327
rfemur -34.1559 -25.1782 8.94328
rtibia 45.1003
rfoot -9.0388 -14.6032
rtoes 4.14678
lfemur -36.7318 -13.3952 -29.4405
ltibia 28.3264
lfoot 13.1502 -0.0395036
ltoes -11.0137
